<?xml version="1.0" encoding="UTF-8"?>
<svg version="1.1" viewBox="0 0 1000 1000" xmlns="http://www.w3.org/2000/svg">
 <g transform="translate(0 -52.362)">
  <circle cx="500" cy="552.36" r="443.92" fill="#074D72"/>
  <g transform="matrix(1.2511 0 0 1.2511 193.23 -445.45)" fill-opacity=".13333">
   <path transform="translate(0,552.36)" d="m250 19.068c-127.54 3.03e-4 -230.93 103.39-230.93 230.93 3.04e-4 127.54 103.39 230.93 230.93 230.93 127.54-3e-4 230.93-103.39 230.93-230.93-3e-4 -127.54-103.39-230.93-230.93-230.93zm-13.734 94.056h27.468c5.0488 0 9.1218 4.0644 9.1133 9.1133v104.92h104.92c5.0488 0 9.1133 4.0644 9.1133 9.1133v27.468c0 5.0488-4.0644 9.1133-9.1133 9.1133h-104.92v104.92c0 5.0488-4.0644 9.1133-9.1133 9.1133h-27.468c-5.0488 0-9.1218-4.0644-9.1133-9.1133v-104.92h-104.92c-5.0488 0-9.1133-4.0644-9.1133-9.1133v-27.468c0-5.0488 4.0644-9.1133 9.1133-9.1133h104.92v-104.92c0-5.0488 4.0644-9.1133 9.1133-9.1133z" fill-opacity=".13333"/>
  </g>
  <g transform="matrix(1.2511 0 0 1.2511 187.23 -451.45)" fill="#e4ff1e">
   <path transform="translate(0,552.36)" d="m250 19.068c-127.54 3.03e-4 -230.93 103.39-230.93 230.93 3.04e-4 127.54 103.39 230.93 230.93 230.93 127.54-3e-4 230.93-103.39 230.93-230.93-3e-4 -127.54-103.39-230.93-230.93-230.93zm-13.734 94.056h27.468c5.0488 0 9.1218 4.0644 9.1133 9.1133v104.92h104.92c5.0488 0 9.1133 4.0644 9.1133 9.1133v27.468c0 5.0488-4.0644 9.1133-9.1133 9.1133h-104.92v104.92c0 5.0488-4.0644 9.1133-9.1133 9.1133h-27.468c-5.0488 0-9.1218-4.0644-9.1133-9.1133v-104.92h-104.92c-5.0488 0-9.1133-4.0644-9.1133-9.1133v-27.468c0-5.0488 4.0644-9.1133 9.1133-9.1133h104.92v-104.92c0-5.0488 4.0644-9.1133 9.1133-9.1133z" fill="#e3f2fd"/>
  </g>
 </g>
</svg>
